<svg width="865" height="1013" viewBox="0 0 865 1013" fill="none" xmlns="http://www.w3.org/2000/svg">
<g filter="url(#filter0_d_84_360)">
<path d="M26.7443 972.614L26.7443 132.549C26.7443 -23.5827 -21.0689 4.71576 476.093 181.412C869.333 304.783 849.329 301.369 849.329 376.019V972.798C849.329 989.367 835.898 1002.5 819.33 1002.5H56.7443C40.1758 1002.5 26.7443 989.183 26.7443 972.614Z" fill="#E30411"/>
<path d="M26.7443 972.614L26.7443 132.549C26.7443 -23.5827 -21.0689 4.71576 476.093 181.412C869.333 304.783 849.329 301.369 849.329 376.019V972.798C849.329 989.367 835.898 1002.5 819.33 1002.5H56.7443C40.1758 1002.5 26.7443 989.183 26.7443 972.614Z" fill="#F94D1C"/>
<path d="M26.7443 972.614L26.7443 132.549C26.7443 -23.5827 -21.0689 4.71576 476.093 181.412C869.333 304.783 849.329 301.369 849.329 376.019V972.798C849.329 989.367 835.898 1002.5 819.33 1002.5H56.7443C40.1758 1002.5 26.7443 989.183 26.7443 972.614Z" fill="#0F2943"/>
<path d="M26.7443 972.614L26.7443 132.549C26.7443 -23.5827 -21.0689 4.71576 476.093 181.412C869.333 304.783 849.329 301.369 849.329 376.019V972.798C849.329 989.367 835.898 1002.5 819.33 1002.5H56.7443C40.1758 1002.5 26.7443 989.183 26.7443 972.614Z" stroke="black"/>
</g>
<defs>
<filter id="filter0_d_84_360" x="0" y="0" width="865" height="1013" filterUnits="userSpaceOnUse" color-interpolation-filters="sRGB">
<feFlood flood-opacity="0" result="BackgroundImageFix"/>
<feColorMatrix in="SourceAlpha" type="matrix" values="0 0 0 0 0 0 0 0 0 0 0 0 0 0 0 0 0 0 127 0" result="hardAlpha"/>
<feOffset dx="-5" dy="-10"/>
<feGaussianBlur stdDeviation="10"/>
<feComposite in2="hardAlpha" operator="out"/>
<feColorMatrix type="matrix" values="0 0 0 0 0 0 0 0 0 0 0 0 0 0 0 0 0 0 0.5 0"/>
<feBlend mode="normal" in2="BackgroundImageFix" result="effect1_dropShadow_84_360"/>
<feBlend mode="normal" in="SourceGraphic" in2="effect1_dropShadow_84_360" result="shape"/>
</filter>
</defs>
</svg>
